<!--?xml version="1.0" encoding="utf-8"?-->
<!-- Generator: Adobe Illustrator 15.1.0, SVG Export Plug-In . SVG Version: 6.00 Build 0)  -->

<svg version="1.1" id="_x32_" xmlns="http://www.w3.org/2000/svg" xmlns:xlink="http://www.w3.org/1999/xlink" x="0px" y="0px" width="512px" height="512px" viewBox="0 0 512 512" style="width: 256px; height: 256px; opacity: 1;" xml:space="preserve">
<style type="text/css">

	.st0{fill:#4B4B4B;}

</style>
<g>
	<path class="st0" d="M446.189,241.938c-4.781,0-9.594-1.813-18.438-2.406c-30.469-51.609-86.641-86.25-150.922-86.25
		c-28.172,0-54.766,6.688-78.344,18.5c-40.219-37.094-86.625-16.25-86.625-16.25l25.813,66.563
		c-10.844,14.156-19.578,30.031-25.719,47.125c-15.828,1.938-32.344,3.75-41.688,4.234c-6.297,0.359-18.578,8.141-17.969,20.703
		c1.375,29.031,15.5,84.313,31.813,90c7.859,2.75,18.953,6.344,30.281,9.906c4.125,10.188,9.188,19.938,15.078,29.063L175.986,512
		h61.063l-2.719-31.313h97.375V512h59.547l48.094-118.125c0.266-0.656,0.531-1.313,0.797-1.969l3-7.375l-0.391,0.125
		c6-17.625,9.25-36.531,9.25-56.219c0-18.75-2.984-36.813-8.438-53.75c1.766-1.781,4.094-3.719,7.219-5.719
		C466.814,258.656,458.799,241.938,446.189,241.938z M160.846,269.391c0-6.422,5.219-11.641,11.656-11.641
		s11.656,5.219,11.656,11.641c0,6.453-5.219,11.672-11.656,11.672S160.846,275.844,160.846,269.391z M198.189,373.766
		c-16.844,0-30.516-13.656-30.516-30.516c0-16.844,13.672-30.5,30.516-30.5c16.859,0,30.516,13.656,30.516,30.5
		C228.705,360.109,215.049,373.766,198.189,373.766z" style="fill: rgb(75, 75, 75);"></path>
	<path class="st0" d="M314.783,73.656c0-6.219-5.781-11.281-12.891-11.281h-11.219v22.563h11.219
		C309.002,84.938,314.783,79.875,314.783,73.656z" style="fill: rgb(75, 75, 75);"></path>
	<path class="st0" d="M276.83,133.219c24.547,0,48.563,4.688,70.859,13.438c19.984-14.813,33-38.5,33-65.313
		C380.689,36.422,344.268,0,299.33,0c-44.906,0-81.344,36.422-81.344,81.344c0,21.438,8.359,40.875,21.891,55.375
		C251.955,134.406,264.283,133.219,276.83,133.219z M276.361,55.531c0-3.156,2.547-5.719,5.719-5.719h19.813
		c15,0,27.203,10.688,27.203,23.844c0,13.141-12.203,23.844-27.203,23.844h-11.219v16.438c0,3.156-2.563,5.719-5.719,5.719h-2.875
		c-3.172,0-5.719-2.563-5.719-5.719V55.531z" style="fill: rgb(75, 75, 75);"></path>
</g>
</svg>
